<?xml version="1.0" standalone="no"?>
<!DOCTYPE svg PUBLIC "-//W3C//DTD SVG 20010904//EN"
 "http://www.w3.org/TR/2001/REC-SVG-20010904/DTD/svg10.dtd">
<svg version="1.0" xmlns="http://www.w3.org/2000/svg"
 width="4500.000000pt" height="4500.000000pt" viewBox="0 0 4500.000000 4500.000000"
 preserveAspectRatio="xMidYMid meet">

<g transform="translate(0.000000,4500.000000) scale(0.100000,-0.100000)"
fill="#000000" stroke="none">
<path d="M11048 38029 c-675 -42 -1341 -298 -1868 -719 -126 -101 -343 -310
-450 -435 -452 -526 -727 -1179 -790 -1875 -7 -79 -10 -3564 -10 -11060 l0
-10945 2838 -2837 c2702 -2701 2840 -2838 2908 -2871 111 -55 180 -70 309 -64
123 5 202 28 297 87 34 22 647 627 1761 1739 l1707 1706 -2230 2230 -2230
2230 0 1080 0 1080 2118 2118 2117 2117 942 0 943 0 3 -7067 c2 -6643 3 -7071
19 -7123 56 -179 169 -316 319 -388 152 -72 -58 -67 2609 -67 l2415 0 3 7322
2 7323 2323 2 2322 3 3 2403 c2 2662 7 2477 -64 2620 -42 87 -134 189 -218
244 -33 21 -96 51 -140 66 l-81 27 -2072 3 -2073 2 0 2845 0 2845 2517 0 2518
0 1735 -1735 1735 -1735 1706 1707 c1093 1095 1717 1727 1738 1760 53 86 84
185 89 291 6 118 -9 195 -59 302 l-40 85 -2347 2348 -2347 2347 -6305 -2
-6305 -3 -3 -5527 -2 -5528 -2048 0 -2047 0 -1005 -1005 c-553 -553 -1008
-1005 -1012 -1005 -5 0 -8 2820 -8 6268 0 5513 -2 6275 -15 6330 -48 204 -202
370 -409 439 l-81 28 -800 1 c-440 1 -862 -2 -937 -7z"/>
<path d="M31710 17328 c0 -8670 2 -9840 15 -9896 48 -204 202 -370 409 -439
l81 -28 745 -3 c964 -4 1176 7 1515 83 478 107 962 339 1345 645 126 101 343
310 450 435 456 531 733 1194 790 1890 8 104 10 2286 8 8400 l-3 8260 -27 75
c-56 152 -161 270 -303 341 -149 74 48 69 -2622 69 l-2403 0 0 -9832z"/>
</g>
</svg>
